<svg width="64" height="64" viewBox="0 0 64 64" fill="none" xmlns="http://www.w3.org/2000/svg">
<g clip-path="url(#clip0_302_2)">
<rect width="64" height="64" rx="6" fill="#FAFAFA"/>
<g clip-path="url(#clip1_302_2)">
<path d="M30.3178 40.2825C25.5289 38.8867 24.4678 37.6881 23.2487 35.3779C18.7845 34.0435 18.9546 32.7913 21.3636 30.1604C20.3195 26.0437 20.7654 23.8065 22.5156 19.8818C25.6085 16.2205 28.2391 14.754 35.9207 14.0903C43.1186 15.4697 43.841 17.4074 45.3984 20.7688C46.8771 25.0644 46.9201 26.6182 46.6028 28.9603C48.1606 30.3367 48.802 31.123 46.0794 32.7691C43.8987 37.2063 42.2517 38.4457 39.0625 39.9171C35.6385 41.0995 33.7237 41.1266 30.3178 40.2825Z" fill="#FCC7A8"/>
<path d="M27.8042 56.196H23.877L24.034 66.9441L27.1235 66.579L27.8042 56.196Z" fill="#FCC7A8"/>
<path d="M41.4189 65.9005L40.8953 56.1961C42.4085 56.1961 44.7702 55.3089 44.7702 56.1961C44.7702 57.083 45.3984 65.9005 45.3984 65.9005H41.4189Z" fill="#FCC7A8"/>
<path d="M30.3178 40.2825C25.5289 38.8867 24.4678 37.6881 23.2487 35.3779C18.7845 34.0435 18.9546 32.7913 21.3636 30.1604C20.3195 26.0437 20.7654 23.8065 22.5156 19.8818C25.6085 16.2205 28.2391 14.754 35.9207 14.0903C43.1186 15.4697 43.841 17.4074 45.3984 20.7688C46.8771 25.0644 46.9201 26.6182 46.6028 28.9603C48.1606 30.3367 48.802 31.123 46.0794 32.7691C43.8987 37.2063 42.2517 38.4457 39.0625 39.9171C35.6385 41.0995 33.7237 41.1266 30.3178 40.2825Z" stroke="black" stroke-width="0.3"/>
<path d="M27.8042 56.196H23.877L24.034 66.9441L27.1235 66.579L27.8042 56.196Z" stroke="black" stroke-width="0.3"/>
<path d="M41.4189 65.9005L40.8953 56.1961C42.4085 56.1961 44.7702 55.3089 44.7702 56.1961C44.7702 57.083 45.3984 65.9005 45.3984 65.9005H41.4189Z" stroke="black" stroke-width="0.3"/>
<path d="M17.0696 22.3341C16.842 26.4923 17.5339 28.4572 19.5307 31.6214L21.154 30.2648C20.6779 26.9762 20.2051 25.2416 22.2537 20.6124C23.5021 18.3883 24.4545 17.1895 28.2231 15.447C31.0156 14.2606 33.2335 14.0204 38.7482 14.6122C42.0798 16.2893 43.9118 17.328 46.0268 22.3341C45.7168 19.9182 46.753 20.2345 43.2515 13.4122C40.6378 11.0674 38.8901 10.0169 34.8209 9.02941C30.7882 9.03993 28.6347 8.77036 23.2485 12.2643C20.1877 14.9517 18.5953 16.6959 17.0696 22.3341Z" fill="#904B24" stroke="black" stroke-width="0.3"/>
<path d="M28.5898 20.7148C26.2778 21.7368 24.9882 22.3174 24.8196 25.9324C26.1204 30.1697 27.9565 30.4239 32.1505 29.1151C33.8521 27.479 34.3499 26.3426 33.7214 23.5845C32.9409 21.5567 32.0687 20.7416 28.5898 20.7148Z" fill="#FBFCFF"/>
<path d="M43.5658 20.7148C41.0846 19.7194 39.692 19.2388 37.125 22.6975C36.4323 25.3257 36.8194 26.6284 39.8479 28.4368C42.8222 29.2334 43.9243 28.5758 45.1368 25.9323C45.4648 23.7656 45.5762 22.5607 43.5658 20.7148Z" fill="#FBFCFF"/>
<path d="M28.5898 20.7148C26.2778 21.7368 24.9882 22.3174 24.8196 25.9324C26.1204 30.1697 27.9565 30.4239 32.1505 29.1151C33.8521 27.479 34.3499 26.3426 33.7214 23.5845C32.9409 21.5567 32.0687 20.7416 28.5898 20.7148Z" stroke="black" stroke-width="0.3"/>
<path d="M43.5658 20.7148C41.0846 19.7194 39.692 19.2388 37.125 22.6975C36.4323 25.3257 36.8194 26.6284 39.8479 28.4368C42.8222 29.2334 43.9243 28.5758 45.1368 25.9323C45.4648 23.7656 45.5762 22.5607 43.5658 20.7148Z" stroke="black" stroke-width="0.3"/>
<path d="M32.6216 24.8385L33.0928 24.3689L33.5641 24.682L33.4594 25.3081H32.6216V24.8385Z" fill="black"/>
<path d="M43.9846 23.8994L44.5606 23.3254L45.0842 23.482L44.9795 23.8994H43.9846Z" fill="black"/>
<path d="M32.6216 24.8385L33.0928 24.3689L33.5641 24.682L33.4594 25.3081H32.6216V24.8385Z" stroke="black" stroke-width="0.3"/>
<path d="M43.9846 23.8994L44.5606 23.3254L45.0842 23.482L44.9795 23.8994H43.9846Z" stroke="black" stroke-width="0.3"/>
<path d="M41.1046 39.0825C35.2631 41.921 32.3268 41.5586 27.2806 39.8128C25.4472 41.8888 24.6662 43.255 24.1911 46.4393C23.2008 50.7648 23.1696 52.6875 23.2486 55.9873L27.8042 56.196L27.2806 66.7877L41.5235 65.9528L40.738 56.196C43.4884 55.7285 44.544 55.5094 45.4506 55.2047C44.9358 45.3182 43.7382 42.5354 41.1046 39.0825Z" fill="#F4F482"/>
<path d="M25.9192 19.621L30.8414 18.4209M39.1672 17.8992L42.9374 18.16M32.4647 36.1084L40.0574 35.5867M34.9258 29.9517L36.9156 30.8387L37.3868 29.6386L36.3396 28.4908M40.738 56.196H40.0574L39.3766 47.0131M27.8042 55.9873V47.7437M40.738 56.196C43.4884 55.7285 44.544 55.5094 45.4506 55.2048C44.9358 45.3182 43.7382 42.5354 41.1046 39.0825C35.2631 41.921 32.3268 41.5587 27.2806 39.8128C25.4472 41.8888 24.6662 43.255 24.1911 46.4393C23.2008 50.7648 23.1696 52.6875 23.2486 55.9873L27.8042 56.196L27.2806 66.7877L41.5235 65.9528L40.738 56.196Z" stroke="black" stroke-width="0.3"/>
</g>
</g>
<defs>
<clipPath id="clip0_302_2">
<rect width="64" height="64" rx="6" fill="white"/>
</clipPath>
<clipPath id="clip1_302_2">
<rect width="31" height="58" fill="white" transform="translate(17 9)"/>
</clipPath>
</defs>
</svg>
